 <svg version="1.0" xmlns="http://www.w3.org/2000/svg"  width="300.000000pt" height="296.000000pt" viewBox="0 0 300.000000 296.000000"  preserveAspectRatio="xMidYMid meet">  <g transform="translate(0.000000,296.000000) scale(0.100000,-0.100000)" fill="#ffffff" stroke="none"> <path d="M1404 2587 c-12 -7 -295 -250 -629 -542 -334 -291 -613 -535 -620 -540 -55 -44 -70 -139 -32 -195 37 -56 79 -74 184 -78 l93 -4 0 -442 c0 -277 4 -455 11 -479 13 -47 63 -106 106 -123 48 -20 493 -20 531 0 42 22 91 79 102 117 6 18 10 141 10 272 0 265 4 287 64 330 30 21 40 22 243 22 198 0 213 -1 239 -21 67 -49 67 -48 65 -308 -1 -138 2 -251 8 -274 16 -56 51 -103 96 -129 38 -22 50 -23 278 -23 214 0 242 2 275 19 42 22 62 42 88 91 18 33 19 61 16 493 l-3 457 77 0 c101 0 147 15 188 61 40 44 53 101 34 149 -8 20 -65 78 -151 154 l-137 121 -3 310 c-2 290 -3 312 -22 344 -40 68 -61 76 -208 76 -111 0 -136 -3 -159 -18 -52 -36 -62 -63 -68 -189 l-5 -116 -235 210 c-277 247 -306 268 -369 268 -26 -1 -56 -6 -67 -13z"/> </g> </svg> 